<?xml version="1.0" encoding="UTF-8" standalone="no"?>
<!-- Created with Inkscape (http://www.inkscape.org/) -->

<svg
   xmlns:dc="http://purl.org/dc/elements/1.1/"
   xmlns:cc="http://creativecommons.org/ns#"
   xmlns:rdf="http://www.w3.org/1999/02/22-rdf-syntax-ns#"
   xmlns:svg="http://www.w3.org/2000/svg"
   xmlns="http://www.w3.org/2000/svg"
   xmlns:sodipodi="http://sodipodi.sourceforge.net/DTD/sodipodi-0.dtd"
   xmlns:inkscape="http://www.inkscape.org/namespaces/inkscape"
   width="70.827293mm"
   height="21.526249mm"
   viewBox="0 0 70.827293 21.526249"
   version="1.1"
   id="svg801"
   inkscape:version="0.92.3 (2405546, 2018-03-11)"
   sodipodi:docname="drone-logo.svg"
   inkscape:export-filename="/tmp/science_lab/science_lab/images/icon-drone-small.png"
   inkscape:export-xdpi="75.668571"
   inkscape:export-ydpi="75.668571">
  <defs
     id="defs795" />
  <sodipodi:namedview
     id="base"
     pagecolor="#ffffff"
     bordercolor="#666666"
     borderopacity="1.0"
     inkscape:pageopacity="0"
     inkscape:pageshadow="2"
     inkscape:zoom="2.585044"
     inkscape:cx="133.84685"
     inkscape:cy="40.679526"
     inkscape:document-units="mm"
     inkscape:current-layer="layer1"
     showgrid="false"
     fit-margin-top="1"
     fit-margin-left="1"
     fit-margin-right="1"
     fit-margin-bottom="1"
     inkscape:window-width="1317"
     inkscape:window-height="708"
     inkscape:window-x="49"
     inkscape:window-y="28"
     inkscape:window-maximized="1" />
  <metadata
     id="metadata798">
    <rdf:RDF>
      <cc:Work
         rdf:about="">
        <dc:format>image/svg+xml</dc:format>
        <dc:type
           rdf:resource="http://purl.org/dc/dcmitype/StillImage" />
        <dc:title></dc:title>
      </cc:Work>
    </rdf:RDF>
  </metadata>
  <g
     inkscape:label="Layer 1"
     inkscape:groupmode="layer"
     id="layer1"
     transform="translate(-43.698133,-83.11203)">
    <path
       inkscape:connector-curvature="0"
       id="path26"
       style="fill:#0266ae;fill-opacity:1;fill-rule:nonzero;stroke:none;stroke-width:0.03527778"
       d="m 74.195646,84.971043 h 9.832622 c 1.08585,0 1.966383,0.880534 1.966383,1.966736 v 4.915253 c 0,1.086203 -0.880533,1.966383 -1.966383,1.966383 h -9.832622 c -1.086203,0 -1.966383,-0.88018 -1.966383,-1.966383 v -4.915253 c 0,-1.086202 0.88018,-1.966736 1.966383,-1.966736" />
    <path
       inkscape:connector-curvature="0"
       id="path28"
       style="fill:#0266ae;fill-opacity:1;fill-rule:nonzero;stroke:none;stroke-width:0.03527778"
       d="m 75.67061,91.853032 h 6.882694 v 2.949928 c 0,0.542925 -0.440267,0.983191 -0.983192,0.983191 h -4.916311 c -0.542925,0 -0.983191,-0.440266 -0.983191,-0.983191 v -2.949928" />
    <path
       inkscape:connector-curvature="0"
       id="path30"
       style="fill:#0266ae;fill-opacity:1;fill-rule:nonzero;stroke:none;stroke-width:0.03527778"
       d="m 77.636993,98.36919 h 2.949928 c 0.542925,0 0.983191,0.440267 0.983191,0.983192 v 2.949928 c 0,0.54292 -0.440266,0.98319 -0.983191,0.98319 h -2.949928 c -0.543278,0 -0.983192,-0.44027 -0.983192,-0.98319 v -2.949928 c 0,-0.542925 0.439914,-0.983192 0.983192,-0.983192" />
    <path
       inkscape:connector-curvature="0"
       id="path32"
       style="fill:#f8f8f8;fill-opacity:1;fill-rule:nonzero;stroke:none;stroke-width:0.03527778"
       d="m 80.586568,100.82735 c 0,0.81456 -0.660047,1.47496 -1.474611,1.47496 -0.814564,0 -1.474964,-0.6604 -1.474964,-1.47496 0,-0.81457 0.6604,-1.474968 1.474964,-1.474968 0.814564,0 1.474611,0.660398 1.474611,1.474968" />
    <path
       inkscape:connector-curvature="0"
       id="path34"
       style="fill:#0266ae;fill-opacity:1;fill-rule:nonzero;stroke:none;stroke-width:0.03527778"
       d="m 79.743782,100.82735 c 0,0.34925 -0.282928,0.63217 -0.631825,0.63217 -0.34925,0 -0.632178,-0.28292 -0.632178,-0.63217 0,-0.3489 0.282928,-0.63218 0.632178,-0.63218 0.348897,0 0.631825,0.28328 0.631825,0.63218" />
    <path
       inkscape:connector-curvature="0"
       id="path36"
       style="fill:#0266ae;fill-opacity:1;fill-rule:nonzero;stroke:none;stroke-width:0.03527778"
       d="m 79.111957,99.930585 c 0.523522,0 0.947914,0.424395 0.947914,0.948265 h 0.316089 c 0,-0.6985 -0.565856,-1.264354 -1.264003,-1.264354 -0.698147,0 -1.264356,0.565854 -1.264356,1.264354 h 0.316089 c 0,-0.52387 0.424392,-0.948265 0.948267,-0.948265" />
    <path
       inkscape:connector-curvature="0"
       id="path38"
       style="fill:none;stroke:#0266ae;stroke-width:1.41111112;stroke-linecap:butt;stroke-linejoin:miter;stroke-miterlimit:10;stroke-dasharray:none;stroke-opacity:1"
       d="M 79.111957,98.860963 V 93.944652" />
    <path
       inkscape:connector-curvature="0"
       id="path40"
       style="fill:#0266ae;fill-opacity:1;fill-rule:nonzero;stroke:none;stroke-width:0.03527778"
       d="M 99.856348,87.429552 H 84.123871 v 2.949927 h 6.39198 c 0.542925,0 0.983192,-0.440266 0.983192,-0.983191 v 0 c 0,-0.543278 0.440266,-0.983545 0.983191,-0.983545 h 7.374114 v -0.983191" />
    <path
       inkscape:connector-curvature="0"
       id="path42"
       style="fill:#0266ae;fill-opacity:1;fill-rule:nonzero;stroke:none;stroke-width:0.03527778"
       d="m 100.34812,89.884885 h 1.96638 c 0.54293,0 0.9832,-0.440267 0.9832,-0.983192 V 86.93531 c 0,-0.542925 -0.44027,-0.983192 -0.9832,-0.983192 h -1.96638 c -0.543278,0 -0.983191,0.440267 -0.983191,0.983192 v 1.966383 c 0,0.542925 0.439913,0.983192 0.983191,0.983192" />
    <path
       inkscape:connector-curvature="0"
       id="path44"
       style="fill:none;stroke:#201e1d;stroke-width:0.35277778;stroke-linecap:butt;stroke-linejoin:miter;stroke-miterlimit:10;stroke-dasharray:none;stroke-opacity:1"
       d="m 101.33131,85.460346 h 3.0159" />
    <path
       inkscape:connector-curvature="0"
       id="path46"
       style="fill:none;stroke:#0266ae;stroke-width:0.35277778;stroke-linecap:butt;stroke-linejoin:miter;stroke-miterlimit:10;stroke-dasharray:none;stroke-opacity:1"
       d="m 101.33131,85.460346 h 3.0159" />
    <path
       inkscape:connector-curvature="0"
       id="path48"
       style="fill:#0266ae;fill-opacity:1;fill-rule:nonzero;stroke:none;stroke-width:0.03527778"
       d="m 104.34721,84.775604 h 8.16187 c 0.56126,0 1.01635,0.455084 1.01635,1.016353 v 0 c 0,0.561622 -0.45509,1.016706 -1.01635,1.016706 h -5.08 c -0.66428,0 -0.67769,-0.677686 -0.67769,-0.677686 h -2.40418 c -0.3743,0 -0.67769,-0.303389 -0.67769,-0.677686 v 0 c 0,-0.374298 0.30339,-0.677687 0.67769,-0.677687" />
    <path
       inkscape:connector-curvature="0"
       id="path50"
       style="fill:none;stroke:#201e1d;stroke-width:0.35277778;stroke-linecap:butt;stroke-linejoin:miter;stroke-miterlimit:10;stroke-dasharray:none;stroke-opacity:1"
       d="M 101.33131,85.460346 H 98.315415" />
    <path
       inkscape:connector-curvature="0"
       id="path52"
       style="fill:none;stroke:#0266ae;stroke-width:0.35277778;stroke-linecap:butt;stroke-linejoin:miter;stroke-miterlimit:10;stroke-dasharray:none;stroke-opacity:1"
       d="M 101.33131,85.460346 H 98.315415" />
    <path
       inkscape:connector-curvature="0"
       id="path54"
       style="fill:#0266ae;fill-opacity:1;fill-rule:nonzero;stroke:none;stroke-width:0.03527778"
       d="m 98.315415,86.145088 h -8.161867 c -0.561622,0 -1.016705,-0.455084 -1.016705,-1.016353 v 0 c 0,-0.561622 0.455083,-1.016705 1.016705,-1.016705 h 5.08 c 0.664281,0 0.677686,0.677686 0.677686,0.677686 h 2.404181 c 0.373944,0 0.677333,0.303388 0.677333,0.677686 v 0 c 0,0.374297 -0.303389,0.677686 -0.677333,0.677686" />
    <path
       inkscape:connector-curvature="0"
       id="path56"
       style="fill:#0266ae;fill-opacity:1;fill-rule:nonzero;stroke:none;stroke-width:0.03527778"
       d="m 102.3145,89.884885 c 0,0.543278 -0.44026,0.983192 -0.98319,0.983192 -0.54292,0 -0.98319,-0.439914 -0.98319,-0.983192 0,-0.542925 0.44027,-0.983192 0.98319,-0.983192 0.54293,0 0.98319,0.440267 0.98319,0.983192" />
    <path
       inkscape:connector-curvature="0"
       id="path58"
       style="fill:#0266ae;fill-opacity:1;fill-rule:nonzero;stroke:none;stroke-width:0.03527778"
       d="m 101.82273,86.443538 h -0.98319 v -0.983192 c 0,-0.271639 0.22013,-0.491419 0.49177,-0.491419 v 0 c 0.27164,0 0.49142,0.21978 0.49142,0.491419 v 0.983192" />
    <path
       inkscape:connector-curvature="0"
       id="path60"
       style="fill:#0266ae;fill-opacity:1;fill-rule:nonzero;stroke:none;stroke-width:0.03527778"
       d="M 58.367319,87.429552 H 74.09969 v 2.949927 h -6.391627 c -0.543278,0 -0.983192,-0.440266 -0.983192,-0.983191 v 0 c 0,-0.543278 -0.440267,-0.983545 -0.983544,-0.983545 h -7.374008 v -0.983191" />
    <path
       inkscape:connector-curvature="0"
       id="path62"
       style="fill:#0266ae;fill-opacity:1;fill-rule:nonzero;stroke:none;stroke-width:0.03527778"
       d="m 57.875617,89.884885 h -1.966454 c -0.54296,0 -0.983227,-0.440267 -0.983227,-0.983192 V 86.93531 c 0,-0.542925 0.440267,-0.983192 0.983227,-0.983192 h 1.966454 c 0.543101,0 0.983368,0.440267 0.983368,0.983192 v 1.966383 c 0,0.542925 -0.440267,0.983192 -0.983368,0.983192" />
    <path
       inkscape:connector-curvature="0"
       id="path64"
       style="fill:none;stroke:#201e1d;stroke-width:0.35277778;stroke-linecap:butt;stroke-linejoin:miter;stroke-miterlimit:10;stroke-dasharray:none;stroke-opacity:1"
       d="M 56.89239,85.460346 H 53.876563" />
    <path
       inkscape:connector-curvature="0"
       id="path66"
       style="fill:none;stroke:#0266ae;stroke-width:0.35277778;stroke-linecap:butt;stroke-linejoin:miter;stroke-miterlimit:10;stroke-dasharray:none;stroke-opacity:1"
       d="M 56.89239,85.460346 H 53.876563" />
    <path
       inkscape:connector-curvature="0"
       id="path68"
       style="fill:#0266ae;fill-opacity:1;fill-rule:nonzero;stroke:none;stroke-width:0.03527778"
       d="m 53.876422,84.775604 h -8.161831 c -0.561446,0 -1.016458,0.455084 -1.016458,1.016353 v 0 c 0,0.561622 0.455012,1.016706 1.016458,1.016706 h 5.080106 c 0.664351,0 0.67758,-0.677686 0.67758,-0.677686 h 2.404145 c 0.374262,0 0.677581,-0.303389 0.677581,-0.677686 v 0 c 0,-0.374298 -0.303319,-0.677687 -0.677581,-0.677687" />
    <path
       inkscape:connector-curvature="0"
       id="path70"
       style="fill:none;stroke:#201e1d;stroke-width:0.35277778;stroke-linecap:butt;stroke-linejoin:miter;stroke-miterlimit:10;stroke-dasharray:none;stroke-opacity:1"
       d="m 56.89239,85.460346 h 3.015968" />
    <path
       inkscape:connector-curvature="0"
       id="path72"
       style="fill:none;stroke:#0266ae;stroke-width:0.35277778;stroke-linecap:butt;stroke-linejoin:miter;stroke-miterlimit:10;stroke-dasharray:none;stroke-opacity:1;fill-opacity:1"
       d="m 56.89239,85.460346 h 3.015968" />
    <path
       inkscape:connector-curvature="0"
       id="path74"
       style="fill:#0266ae;fill-opacity:1;fill-rule:nonzero;stroke:none;stroke-width:0.03527778"
       d="m 59.908499,86.145088 h 8.161866 c 0.56127,0 1.016353,-0.455084 1.016353,-1.016353 v 0 c 0,-0.561622 -0.455083,-1.016705 -1.016353,-1.016705 h -5.080141 c -0.664351,0 -0.677721,0.677686 -0.677721,0.677686 h -2.404004 c -0.374262,0 -0.677721,0.303388 -0.677721,0.677686 v 0 c 0,0.374297 0.303459,0.677686 0.677721,0.677686" />
    <path
       inkscape:connector-curvature="0"
       id="path76"
       style="fill:#0266ae;fill-opacity:1;fill-rule:nonzero;stroke:none;stroke-width:0.03527778"
       d="m 55.909163,89.884885 c 0,0.543278 0.440267,0.983192 0.983227,0.983192 0.543101,0 0.983227,-0.439914 0.983227,-0.983192 0,-0.542925 -0.440126,-0.983192 -0.983227,-0.983192 -0.54296,0 -0.983227,0.440267 -0.983227,0.983192" />
    <path
       inkscape:connector-curvature="0"
       id="path78"
       style="fill:#0266ae;fill-opacity:1;fill-rule:nonzero;stroke:none;stroke-width:0.03527778"
       d="m 56.40083,86.443538 h 0.983262 v -0.983192 c 0,-0.271639 -0.220098,-0.491419 -0.491702,-0.491419 v 0 c -0.271462,0 -0.49156,0.21978 -0.49156,0.491419 v 0.983192" />
    <path
       inkscape:connector-curvature="0"
       id="path80"
       style="fill:#f8f8f8;fill-opacity:1;fill-rule:nonzero;stroke:none;stroke-width:0.03527778"
       d="m 83.536143,87.429199 v 0 c -0.271286,0 -0.49142,-0.219781 -0.49142,-0.49142 v -1.474963 h 0.983192 v 1.474963 c 0,0.271639 -0.220133,0.49142 -0.491772,0.49142" />
    <path
       inkscape:connector-curvature="0"
       id="path82"
       style="fill:#f8f8f8;fill-opacity:1;fill-rule:nonzero;stroke:none;stroke-width:0.03527778"
       d="m 82.061532,87.429199 v 0 c -0.271639,0 -0.491772,-0.219781 -0.491772,-0.49142 v -1.474963 h 0.983544 v 1.474963 c 0,0.271639 -0.220133,0.49142 -0.491772,0.49142" />
    <path
       inkscape:connector-curvature="0"
       id="path84"
       style="fill:none;stroke:#0266ae;stroke-width:0.706;stroke-linecap:butt;stroke-linejoin:miter;stroke-miterlimit:10;stroke-dasharray:none;stroke-opacity:1"
       d="M 77.337485,90.503304 67.504863,103.2855"
       sodipodi:nodetypes="cc" />
    <path
       inkscape:connector-curvature="0"
       id="path86"
       style="fill:#0266ae;fill-opacity:1;fill-rule:nonzero;stroke:none;stroke-width:0.03527778"
       d="m 70.522171,103.2855 h -5.899397 v 0 c 0,-0.54292 0.440161,-0.98319 0.983086,-0.98319 h 3.933119 c 0.542925,0 0.983192,0.44027 0.983192,0.98319 v 0" />
    <path
       inkscape:connector-curvature="0"
       id="path88"
       style="fill:none;stroke:#0266ae;stroke-width:0.706;stroke-linecap:butt;stroke-linejoin:miter;stroke-miterlimit:10;stroke-dasharray:none;stroke-opacity:1"
       d="m 70.522171,103.2855 h -5.899397 v 0 c 0,-0.54292 0.440161,-0.98319 0.983086,-0.98319 h 3.933119 c 0.542925,0 0.983192,0.44027 0.983192,0.98319 z" />
    <path
       inkscape:connector-curvature="0"
       id="path90"
       style="fill:none;stroke:#0266ae;stroke-width:0.70555556;stroke-linecap:butt;stroke-linejoin:miter;stroke-miterlimit:10;stroke-dasharray:none;stroke-opacity:1"
       d="M 80.886429,90.503304 90.718698,103.2855"
       sodipodi:nodetypes="cc" />
    <path
       inkscape:connector-curvature="0"
       id="path92"
       style="fill:#0266ae;fill-opacity:1;fill-rule:nonzero;stroke:none;stroke-width:0.03527778"
       d="m 87.70139,103.2855 h 5.899503 v 0 c 0,-0.54292 -0.440267,-0.98319 -0.983192,-0.98319 h -3.933119 c -0.542925,0 -0.983192,0.44027 -0.983192,0.98319 v 0" />
    <path
       inkscape:connector-curvature="0"
       id="path94"
       style="fill:none;stroke:#0266ae;stroke-width:0.70555556;stroke-linecap:butt;stroke-linejoin:miter;stroke-miterlimit:10;stroke-dasharray:none;stroke-opacity:1"
       d="m 87.70139,103.2855 h 5.899503 v 0 c 0,-0.54292 -0.440267,-0.98319 -0.983192,-0.98319 h -3.933119 c -0.542925,0 -0.983192,0.44027 -0.983192,0.98319 z" />
  </g>
</svg>
