<?xml version="1.0" encoding="UTF-8" standalone="no"?>
<!-- Generator: Adobe Illustrator 16.0.0, SVG Export Plug-In . SVG Version: 6.00 Build 0)  -->

<svg
   xmlns:dc="http://purl.org/dc/elements/1.1/"
   xmlns:cc="http://creativecommons.org/ns#"
   xmlns:rdf="http://www.w3.org/1999/02/22-rdf-syntax-ns#"
   xmlns:svg="http://www.w3.org/2000/svg"
   xmlns="http://www.w3.org/2000/svg"
   xmlns:sodipodi="http://sodipodi.sourceforge.net/DTD/sodipodi-0.dtd"
   xmlns:inkscape="http://www.inkscape.org/namespaces/inkscape"
   version="1.1"
   id="Capa_1"
   x="0px"
   y="0px"
   width="222.505px"
   height="222.504px"
   viewBox="0 0 222.505 222.504"
   style="enable-background:new 0 0 222.505 222.504;"
   xml:space="preserve"
   sodipodi:docname="research.svg"
   inkscape:version="0.92.3 (2405546, 2018-03-11)"
   inkscape:export-filename="/home/dinko/Documents/LARAS-Website/images/icon-research-small.png"
   inkscape:export-xdpi="27.610001"
   inkscape:export-ydpi="27.610001"><metadata
   id="metadata41"><rdf:RDF><cc:Work
       rdf:about=""><dc:format>image/svg+xml</dc:format><dc:type
         rdf:resource="http://purl.org/dc/dcmitype/StillImage" /></cc:Work></rdf:RDF></metadata><defs
   id="defs39" /><sodipodi:namedview
   pagecolor="#ffffff"
   bordercolor="#666666"
   borderopacity="1"
   objecttolerance="10"
   gridtolerance="10"
   guidetolerance="10"
   inkscape:pageopacity="0"
   inkscape:pageshadow="2"
   inkscape:window-width="1317"
   inkscape:window-height="708"
   id="namedview37"
   showgrid="false"
   inkscape:zoom="2.2561392"
   inkscape:cx="111.2525"
   inkscape:cy="111.252"
   inkscape:window-x="49"
   inkscape:window-y="28"
   inkscape:window-maximized="1"
   inkscape:current-layer="Capa_1" />
<g
   id="g4"
   style="fill:#0266ae;fill-opacity:1">
	<path
   d="M178.088,27.119c-12.472-13.917-28.939-26.832-69.641-27.116c-15.9-0.127-40.187,3.635-59.078,23.611   C37.938,35.677,29.526,50.918,31.92,75.829c0.52,5.406,8.24,11.659,2.813,22.091c0,0-11.644,20.502-11.236,23.912   c0,0-0.213,6.236,9.434,6.432c0,0,2.412,0.312,1.714,5.627l-0.106,7.748c0,0,0.308,2.306,4.528,3.707c0,0,0.804,0.804-0.402,2.322   c0,0-2.223,2.477,1.608,7.832c1.418,1.95,3.712,4.409,2.305,9.457c0,0-1.809,9.729,2.01,12.059c0,0,4.345,5.153,21.817,2.996   c6.1-0.75,17.377-3.706,24.104,4.734c0,0,16.071,30.535,17.289,37.758c0,0,27.426-48.822,60.904-56.358   c0,0-8.157-18.389,8.429-42.203c0,0,20.8-27.432,21.409-42.501C198.527,81.441,204.019,56.049,178.088,27.119z M127.403,21.435   l9.339,3.455l-9.28,25.041l-9.327-3.452L127.403,21.435z M90.975,24.556l11.166,24.272l-9.043,4.158L81.943,28.723L90.975,24.556z    M77.445,72.924l-25.043-9.269l3.452-9.333l25.044,9.269L77.445,72.924z M107.572,115.195l-1.638-3.576   c-9.279-1.844-17.578-7.917-21.828-17.153c-7.028-15.294-0.331-33.399,14.96-40.433c15.303-7.028,33.396-0.325,40.43,14.975   c4.25,9.235,3.452,19.508-1.194,27.733l1.644,3.582L107.572,115.195z M108.671,117.577l32.356-14.874l1.448,3.153l-32.374,14.871   L108.671,117.577z M141.134,117.246c0.644,3.618-2.678,8.146-8.128,10.651c-5.438,2.494-11.053,2.081-13.37-0.769   c-3.091,1.229-6.632-0.106-8.032-3.15l-0.361-0.786l32.362-14.871l0.372,0.78C145.371,112.151,144.083,115.704,141.134,117.246z"
   id="path2"
   style="fill:#0266ae;fill-opacity:1" />
</g>
<g
   id="g6">
</g>
<g
   id="g8">
</g>
<g
   id="g10">
</g>
<g
   id="g12">
</g>
<g
   id="g14">
</g>
<g
   id="g16">
</g>
<g
   id="g18">
</g>
<g
   id="g20">
</g>
<g
   id="g22">
</g>
<g
   id="g24">
</g>
<g
   id="g26">
</g>
<g
   id="g28">
</g>
<g
   id="g30">
</g>
<g
   id="g32">
</g>
<g
   id="g34">
</g>
</svg>