<?xml version="1.0" encoding="UTF-8" standalone="no"?>
<!-- Generator: Adobe Illustrator 16.0.0, SVG Export Plug-In . SVG Version: 6.00 Build 0)  -->

<svg
   xmlns:dc="http://purl.org/dc/elements/1.1/"
   xmlns:cc="http://creativecommons.org/ns#"
   xmlns:rdf="http://www.w3.org/1999/02/22-rdf-syntax-ns#"
   xmlns:svg="http://www.w3.org/2000/svg"
   xmlns="http://www.w3.org/2000/svg"
   xmlns:sodipodi="http://sodipodi.sourceforge.net/DTD/sodipodi-0.dtd"
   xmlns:inkscape="http://www.inkscape.org/namespaces/inkscape"
   version="1.1"
   id="Capa_1"
   x="0px"
   y="0px"
   width="361.578px"
   height="361.578px"
   viewBox="0 0 361.578 361.578"
   style="enable-background:new 0 0 361.578 361.578;"
   xml:space="preserve"
   sodipodi:docname="robotic-arm.svg"
   inkscape:version="0.92.3 (2405546, 2018-03-11)"
   inkscape:export-filename="/home/dinko/Documents/LARAS-Website/images/icon-robotarm-small.png"
   inkscape:export-xdpi="16.856354"
   inkscape:export-ydpi="16.856354"><metadata
   id="metadata57"><rdf:RDF><cc:Work
       rdf:about=""><dc:format>image/svg+xml</dc:format><dc:type
         rdf:resource="http://purl.org/dc/dcmitype/StillImage" /></cc:Work></rdf:RDF></metadata><defs
   id="defs55">
	

		
		
		
		
	
			
		
			
		
			
		
			
		</defs><sodipodi:namedview
   pagecolor="#ffffff"
   bordercolor="#666666"
   borderopacity="1"
   objecttolerance="10"
   gridtolerance="10"
   guidetolerance="10"
   inkscape:pageopacity="0"
   inkscape:pageshadow="2"
   inkscape:window-width="1317"
   inkscape:window-height="708"
   id="namedview53"
   showgrid="false"
   inkscape:zoom="1.3883588"
   inkscape:cx="180.789"
   inkscape:cy="180.789"
   inkscape:window-x="49"
   inkscape:window-y="28"
   inkscape:window-maximized="1"
   inkscape:current-layer="Capa_1" />
<path
   inkscape:connector-curvature="0"
   id="path2"
   d="m 109.329,199.227 c 0,0 -0.307,12.677 -15.433,27.755 -15.126,15.084 -29.718,15.84 -29.718,15.84 l 62.318,62.336 h -5.17 v 56.421 H 254.297 V 305.158 H 215.272 Z M 243.788,351.046 H 131.847 v -35.362 h 111.947 v 35.362 z"
   style="fill:#0266ae;fill-opacity:1" /><circle
   id="circle6"
   r="20.194"
   cy="183.452"
   cx="55.181"
   style="fill:#0266ae;fill-opacity:1" /><path
   inkscape:connector-curvature="0"
   id="path10"
   d="m 106.119,183.452 c 0,-1.753 -0.087,-3.479 -0.258,-5.191 -2.657,-26.087 -24.437,-45.747 -50.687,-45.747 -28.094,0 -50.936,22.845 -50.936,50.938 0,28.084 22.842,50.927 50.936,50.927 28.109,0 50.945,-22.843 50.945,-50.927 z m -50.938,38.209 c -21.065,0 -38.203,-17.138 -38.203,-38.215 0,-21.08 17.138,-38.218 38.203,-38.218 21.08,0 38.218,17.138 38.218,38.218 -0.001,21.077 -17.138,38.215 -38.218,38.215 z"
   style="fill:#0266ae;fill-opacity:1" /><path
   inkscape:connector-curvature="0"
   id="path14"
   d="m 354.271,35.329 c -1.796,-1.012 -4.071,-1.012 -5.896,0.015 -0.961,0.547 -1.754,1.352 -2.271,2.297 l -37.169,66.479 -41.523,-8.284 -26.56,-48.152 13.955,-35.431 75.919,4.741 0.559,0.021 c 0.919,0 1.861,-0.223 2.732,-0.685 1.867,-0.997 3.05,-2.841 3.164,-4.924 0.114,-1.618 -0.414,-3.149 -1.478,-4.359 -1.057,-1.201 -2.521,-1.913 -4.131,-2.024 L 250.88,0 c -2.594,0 -4.702,1.42 -5.633,3.786 l -11.925,30.246 v 0 l -27.467,14.52 5.909,11.214 -130.658,69.109 c 0,0 9.893,0.336 23.611,22.917 13.718,22.59 7.458,33.071 7.458,33.071 l 128.953,-69.623 5.909,11.193 23.935,-12.673 6.119,-2.435 -1.225,-1.567 35.002,6.984 c 0.396,0.087 0.816,0.129 1.2,0.129 2.18,0 4.18,-1.18 5.213,-3.062 l 39.307,-70.313 c 1.598,-2.889 0.564,-6.56 -2.317,-8.167 z"
   style="fill:#0266ae;fill-opacity:1" />
<g
   id="g22">
</g>
<g
   id="g24">
</g>
<g
   id="g26">
</g>
<g
   id="g28">
</g>
<g
   id="g30">
</g>
<g
   id="g32">
</g>
<g
   id="g34">
</g>
<g
   id="g36">
</g>
<g
   id="g38">
</g>
<g
   id="g40">
</g>
<g
   id="g42">
</g>
<g
   id="g44">
</g>
<g
   id="g46">
</g>
<g
   id="g48">
</g>
<g
   id="g50">
</g>
<rect
   style="fill:#0266ae;fill-opacity:1;fill-rule:nonzero;stroke:#0266ae;stroke-width:2.66834641;stroke-miterlimit:10;stroke-dasharray:none;stroke-dashoffset:0;stroke-opacity:1"
   id="rect885"
   width="111.941"
   height="35.362"
   x="131.847"
   y="315.68399"
   ry="0.80092299" /></svg>